<?xml version="1.0" encoding="UTF-8"?>
<svg version="1.1" xmlns="http://www.w3.org/2000/svg" width="640" height="410">
<path d="M0 0 C0.71220703 -0.00773438 1.42441406 -0.01546875 2.15820312 -0.0234375 C10.24132352 0.00592897 16.91943621 2.07406389 24.0625 5.75 C24.74538086 6.09748291 25.42826172 6.44496582 26.13183594 6.80297852 C66.16673178 27.57623397 99.69612321 59.38189058 113.86474609 102.84887695 C120.30160885 123.79935634 122.88563832 145.76268244 125.3984375 167.46875 C125.73729249 170.3134455 126.08514111 173.15694698 126.4375 176 C126.57567642 177.12004929 126.57567642 177.12004929 126.71664429 178.26272583 C128.3308525 191.08030175 130.49239086 203.78469468 132.77734375 216.49609375 C132.92268303 217.30737606 133.06802231 218.11865837 133.21776581 218.95452499 C134.55644086 226.42555721 135.89761244 233.89604125 137.29119873 241.35705566 C145.75337623 286.66347633 145.75337623 286.66347633 139.5625 299.25 C134.97780595 305.46711305 128.48583426 309.59620923 121.9375 313.5 C121.02726074 314.05228271 120.11702148 314.60456543 119.17919922 315.17358398 C109.15455249 321.19712792 98.89877977 326.78321674 88.5625 332.25 C87.61052734 332.75418457 86.65855469 333.25836914 85.67773438 333.77783203 C74.80138747 339.52420512 63.86670752 345.14226892 52.84155273 350.59765625 C47.97151392 353.01542669 43.16013628 355.5194785 38.37426758 358.09960938 C6.84179101 375.03798034 6.84179101 375.03798034 -4.4375 372.25 C-10.68443974 370.13231155 -16.54345591 367.18330965 -22.4375 364.25 C-24.19492125 363.3963295 -25.95274339 362.54348386 -27.7109375 361.69140625 C-64.35221767 343.78081915 -101.8187332 323.28898442 -133.4375 297.25 C-134.21738281 296.64414062 -134.99726563 296.03828125 -135.80078125 295.4140625 C-141.77124984 290.58966192 -145.79132718 284.821517 -147.4375 277.25 C-147.9485882 268.96185299 -146.31538931 261.14494702 -144.6875 253.0625 C-144.53810974 252.30933502 -144.38871948 251.55617004 -144.23480225 250.78018188 C-132.37375085 191.05643557 -118.81090107 132.58844979 -90.4375 78.25 C-89.85355469 77.11304687 -89.26960938 75.97609375 -88.66796875 74.8046875 C-84.72292808 67.27081751 -80.34615296 60.19271806 -75.4375 53.25 C-75.00308594 52.6322168 -74.56867188 52.01443359 -74.12109375 51.37792969 C-57.74277 28.25894484 -30.5301144 -0.32975821 0 0 Z " fill="#26282A" transform="translate(320.4375,14.75)"/>
<path d="M0 0 C16.50701849 3.98230576 32.87268328 3.79976015 49.70507812 1.69091797 C59.32944126 0.62154429 67.13907454 2.35597995 76.27539062 5.12060547 C76.27539062 5.78060547 76.27539062 6.44060547 76.27539062 7.12060547 C77.17064453 7.50345703 77.17064453 7.50345703 78.08398438 7.89404297 C83.45134293 10.89823296 86.79156348 17.15452252 88.68554688 22.85888672 C90.7031256 30.59516541 91.541289 38.14365418 91.27539062 46.12060547 C92.59539062 46.45060547 93.91539062 46.78060547 95.27539062 47.12060547 C94.69184107 51.99386509 93.67844521 56.39804498 92.15039062 61.05810547 C90.53267115 66.02578739 89.01341588 71.00249674 87.63476562 76.04248047 C82.34054796 95.29267231 75.48522457 111.47633574 59.27539062 124.12060547 C58.52644531 124.70583984 57.7775 125.29107422 57.00585938 125.89404297 C42.41598747 136.68913398 27.09079106 140.32371266 9.27539062 140.43310547 C8.40333984 140.43874512 7.53128906 140.44438477 6.6328125 140.45019531 C-7.54593536 140.28969145 -20.62792641 134.86589532 -30.88476562 125.05419922 C-35.9705692 119.57642619 -39.98254064 113.57271978 -43.72460938 107.12060547 C-44.08731934 106.49621582 -44.4500293 105.87182617 -44.82373047 105.22851562 C-57.59430652 82.97521027 -60.16335114 60.73703958 -62.72314453 35.50048828 C-62.83964355 34.35547852 -62.95614258 33.21046875 -63.07617188 32.03076172 C-63.17752441 31.01119385 -63.27887695 29.99162598 -63.38330078 28.94116211 C-63.70368692 26.29350756 -64.18586082 23.73088798 -64.72460938 21.12060547 C-65.17755642 16.01938214 -65.38170675 11.60621692 -63.28710938 6.87060547 C-45.50818486 -12.20921596 -22.70524845 -5.53730039 0 0 Z " fill="#797A7B" transform="translate(306.724609375,207.87939453125)"/>
<path d="M0 0 C0 0.66 0 1.32 0 2 C0.73605469 2.13277344 1.47210938 2.26554688 2.23046875 2.40234375 C3.69419922 2.66724609 3.69419922 2.66724609 5.1875 2.9375 C6.63189453 3.19853516 6.63189453 3.19853516 8.10546875 3.46484375 C9.87527229 3.79205439 11.64053542 4.1473336 13.39453125 4.55078125 C23.31224877 6.26073255 33.5911694 5.07309313 43.4375 3.5 C71.28075825 -0.93529972 71.28075825 -0.93529972 82.1875 4.625 C86.84199739 8.55546446 89.07296832 12.95263443 90 19 C90.99436082 31.20222779 88.8586686 41.48201928 85 53 C84.67773438 53.99257813 84.35546875 54.98515625 84.0234375 56.0078125 C81.15298534 63.97019718 76.31380044 71.33310534 70 77 C67.26013449 77 66.14559052 76.1137426 64 74.4375 C62.24569106 72.29943598 61.23475307 70.58720223 60.0625 68.125 C56.5631873 60.91185735 52.88776365 57.4952234 45.40234375 54.76171875 C30.93143065 50.17338045 8.04379117 50.90205814 -5.6875 58 C-10.35122309 61.40041209 -12.63539894 66.88565452 -15 72 C-15.66 72 -16.32 72 -17 72 C-17 72.66 -17 73.32 -17 74 C-18.75 75.6875 -18.75 75.6875 -21 77 C-23.73702536 76.75817447 -24.75925741 76.26205234 -26.6328125 74.22265625 C-27.12523437 73.50980469 -27.61765625 72.79695313 -28.125 72.0625 C-29.679928 69.84290071 -31.07881003 67.92118997 -33 66 C-33 65.34 -33 64.68 -33 64 C-33.474375 63.525625 -33.94875 63.05125 -34.4375 62.5625 C-36 61 -36 61 -37 58 C-37.66 57.34 -38.32 56.68 -39 56 C-39.71706982 54.01751285 -40.38290413 52.01584651 -41 50 C-41.495 48.515 -41.495 48.515 -42 47 C-43.98 47.495 -43.98 47.495 -46 48 C-47.79448736 39.32664444 -49.26563853 30.68782331 -50.1875 21.875 C-50.27112793 21.08246826 -50.35475586 20.28993652 -50.44091797 19.47338867 C-51.59528909 7.81175785 -51.59528909 7.81175785 -49.625 5.125 C-48 4 -48 4 -46 4 C-46 3.34 -46 2.68 -46 2 C-45.34 2 -44.68 2 -44 2 C-44 1.34 -44 0.68 -44 0 C-39.71622553 -2.57026468 -35.82984661 -4.60471098 -31 -6 C-30.38125 -6.20625 -29.7625 -6.4125 -29.125 -6.625 C-18.56287734 -8.488904 -9.64299181 -3.88625282 0 0 Z " fill="#FBFBFB" transform="translate(296,220)"/>
<path d="M0 0 C0.94633301 -0.01401855 1.89266602 -0.02803711 2.86767578 -0.04248047 C11.54861409 0.01688418 20.33629383 1.54562132 27.0625 7.375 C34.03850366 16.17460628 35.7543905 22.16115208 35.0625 33.375 C33.69579952 41.63789554 29.16030769 47.31437034 22.546875 52.25390625 C11.9078118 59.29088662 1.07611166 64.7598304 -11.9375 63.375 C-15.42585704 62.3455613 -18.64200077 60.90166897 -21.9375 59.375 C-22.72382813 59.06304687 -23.51015625 58.75109375 -24.3203125 58.4296875 C-33.78428021 54.61201917 -38.44094548 49.36810903 -42.9375 40.375 C-43.8408381 31.0260224 -44.86607648 19.40169511 -39.58203125 11.25 C-29.67964537 -0.04013117 -14.00216459 0.14244088 0 0 Z " fill="#282A2C" transform="translate(323.9375,271.625)"/>
<path d="M0 0 C0.96070434 2.88211302 1.10581883 4.69850044 1.0625 7.6875 C1.05347656 8.49574219 1.04445313 9.30398438 1.03515625 10.13671875 C1.02355469 10.75160156 1.01195312 11.36648438 1 12 C1.99 11.67 2.98 11.34 4 11 C-1.05191748 29.34643717 -14.11629158 43.17153177 -30 53 C-42.78853232 60.19460251 -55.56814655 62.22388336 -70 62.3125 C-70.87205078 62.31813965 -71.74410156 62.3237793 -72.64257812 62.32958984 C-86.82132599 62.16908598 -99.90331703 56.74528986 -110.16015625 46.93359375 C-116.37414847 40.24068113 -121.81391701 32.59933079 -125 24 C-123.68 23.01 -122.36 22.02 -121 21 C-120.01 21.66 -119.02 22.32 -118 23 C-118 23.66 -118 24.32 -118 25 C-117.43796875 25.26554687 -116.8759375 25.53109375 -116.296875 25.8046875 C-113.82069778 27.09331034 -111.56155118 28.56130361 -109.25 30.125 C-108.45078125 30.66382813 -107.6515625 31.20265625 -106.828125 31.7578125 C-106.22484375 32.16773438 -105.6215625 32.57765625 -105 33 C-105.33 32.34 -105.66 31.68 -106 31 C-106.08400529 29.40552536 -106.10727467 27.80759455 -106.09765625 26.2109375 C-106.09443359 25.26992188 -106.09121094 24.32890625 -106.08789062 23.359375 C-106.07951172 22.37453125 -106.07113281 21.3896875 -106.0625 20.375 C-106.05798828 19.38242187 -106.05347656 18.38984375 -106.04882812 17.3671875 C-106.03702145 14.9113984 -106.020554 12.45572896 -106 10 C-105.67 10 -105.34 10 -105 10 C-104.96261719 11.08539063 -104.92523438 12.17078125 -104.88671875 13.2890625 C-104.82102125 14.73440739 -104.75457524 16.17971839 -104.6875 17.625 C-104.66494141 18.33785156 -104.64238281 19.05070312 -104.61914062 19.78515625 C-104.21837062 27.72768913 -100.77188617 33.62254796 -95 39 C-89.73320201 42.59367648 -83.4671217 44.27503436 -77.44140625 46.16796875 C-75 47 -75 47 -74 48 C-61.13686523 49.32714883 -48.46599847 43.40893315 -38.20703125 35.9765625 C-32.48977457 31.10803397 -29.11459419 26.57924047 -28 19 C-27.67 19 -27.34 19 -27 19 C-27.33 23.62 -27.66 28.24 -28 33 C-26.35 32.01 -24.7 31.02 -23 30 C-22.34 30 -21.68 30 -21 30 C-20.505 28.515 -20.505 28.515 -20 27 C-18.84893182 25.84893182 -17.69463629 24.70089168 -16.5234375 23.5703125 C-11.46033508 18.35142231 -7.47226312 12.4833537 -4.140625 6.04296875 C-2.9278668 3.87080253 -1.53098593 1.95772626 0 0 Z " fill="#6D6E6E" transform="translate(386,286)"/>
<path d="M0 0 C8.71155207 5.36581106 16.18654939 8.83940966 26.4453125 8.84765625 C27.23164063 8.85990234 28.01796875 8.87214844 28.828125 8.88476562 C33.86636336 8.89731938 37.90148544 8.18000368 42.6953125 6.66015625 C45.02864583 6.66015625 47.36197917 6.66015625 49.6953125 6.66015625 C55.08496536 5.98011951 60.4422133 5.08225585 65.78125 4.08203125 C77.70763947 1.89083108 87.0822944 1.30803389 97.59375 7.83984375 C105.81697638 13.908513 108.80506931 23.61990364 110.4453125 33.28515625 C110.6004834 34.33388916 110.6004834 34.33388916 110.75878906 35.40380859 C111.2825489 39.46078301 111.2825489 39.46078301 113.6953125 42.66015625 C114.6853125 42.33015625 115.6753125 42.00015625 116.6953125 41.66015625 C116.0128669 45.75482986 114.75574973 49.41807795 113.2578125 53.28515625 C112.82597656 54.41179687 112.39414062 55.5384375 111.94921875 56.69921875 C110.6953125 59.66015625 110.6953125 59.66015625 108.6953125 62.66015625 C108.3653125 61.67015625 108.0353125 60.68015625 107.6953125 59.66015625 C105.68022892 58.92691829 105.68022892 58.92691829 103.6953125 58.66015625 C103.74171875 57.96792969 103.788125 57.27570313 103.8359375 56.5625 C104.27981603 44.53022128 101.98397445 31.86057101 93.6953125 22.66015625 C92.9734375 22.1290625 92.2515625 21.59796875 91.5078125 21.05078125 C90.9096875 20.591875 90.3115625 20.13296875 89.6953125 19.66015625 C89.6953125 19.00015625 89.6953125 18.34015625 89.6953125 17.66015625 C88.82390625 17.51835937 87.9525 17.3765625 87.0546875 17.23046875 C84.99711898 16.88116061 82.94336537 16.50682625 80.8984375 16.08984375 C71.33169617 14.29291615 62.31791956 14.85680098 52.6953125 15.66015625 C50.36200739 15.84800709 48.02867719 16.03554682 45.6953125 16.22265625 C44.303125 16.34833984 44.303125 16.34833984 42.8828125 16.4765625 C34.01417581 16.98737858 26.14154829 16.21749988 17.4453125 14.34765625 C16.3413916 14.11981445 15.2374707 13.89197266 14.10009766 13.65722656 C9.55129534 12.71360272 5.00989709 11.74518803 0.484375 10.6953125 C-12.23471166 7.77021362 -27.40400372 4.76449103 -39.38671875 11.4375 C-45.96707221 15.63230781 -49.08683551 19.09336711 -51.3046875 26.66015625 C-51.6346875 26.66015625 -51.9646875 26.66015625 -52.3046875 26.66015625 C-53.24222711 22.63559598 -53.53264616 18.78933325 -53.6171875 14.66015625 C-53.65457031 13.46390625 -53.69195312 12.26765625 -53.73046875 11.03515625 C-53.14188774 6.36970675 -51.11276901 4.20814251 -47.62109375 1.21875 C-32.68872181 -8.32599554 -14.96450937 -9.54632494 0 0 Z " fill="#5A5A5B" transform="translate(293.3046875,195.33984375)"/>
<path d="M0 0 C10.81775926 -0.47934981 20.80903843 2.18476683 31.28222656 4.59765625 C45.70680441 7.86702541 62.50389463 11.08877268 77.07421875 7.23046875 C80.41222782 7.03745462 83.73350639 7.12417336 87.07421875 7.23046875 C87.76 7.24722656 88.44578125 7.26398438 89.15234375 7.28125 C96.09563793 7.77518353 103.46252064 10.92423779 108.07421875 16.23046875 C108.54859375 17.05546875 109.02296875 17.88046875 109.51171875 18.73046875 C111.12723603 21.3152964 112.65310218 22.45498327 115.07421875 24.23046875 C121.06126747 42.1916149 111.86017034 63.23228746 104.07421875 79.23046875 C102.03249904 83.07549497 99.86290749 86.87650526 97.07421875 90.23046875 C96.41421875 90.23046875 95.75421875 90.23046875 95.07421875 90.23046875 C95.07421875 90.89046875 95.07421875 91.55046875 95.07421875 92.23046875 C90.68960337 95.23046875 90.68960337 95.23046875 88.07421875 95.23046875 C87.40334755 93.60720005 86.73764846 91.98179297 86.07421875 90.35546875 C85.70296875 89.45054687 85.33171875 88.545625 84.94921875 87.61328125 C84.07421875 85.23046875 84.07421875 85.23046875 84.07421875 83.23046875 C85.55921875 83.72546875 85.55921875 83.72546875 87.07421875 84.23046875 C87.07421875 84.89046875 87.07421875 85.55046875 87.07421875 86.23046875 C89.05421875 86.72546875 89.05421875 86.72546875 91.07421875 87.23046875 C91.40421875 86.57046875 91.73421875 85.91046875 92.07421875 85.23046875 C92.99660626 84.154823 93.93655668 83.09416071 94.88671875 82.04296875 C101.49166893 74.32146747 104.09871476 65.76199985 107.07421875 56.23046875 C107.3990625 55.31136719 107.72390625 54.39226562 108.05859375 53.4453125 C109.96649743 47.62260646 110.37722294 42.06319195 110.44921875 35.98046875 C110.46315674 35.22338623 110.47709473 34.46630371 110.49145508 33.6862793 C110.43925727 27.51812582 109.21220723 22.70251793 105.07421875 17.91796875 C99.44354486 13.16708765 94.2022665 13.5513455 87.07421875 13.23046875 C85.44033203 13.14925781 85.44033203 13.14925781 83.7734375 13.06640625 C76.90694181 12.88889402 70.49901814 13.55327436 63.76171875 14.73046875 C48.95609248 17.28121744 35.49100072 17.03606274 21.07421875 12.23046875 C21.07421875 11.57046875 21.07421875 10.91046875 21.07421875 10.23046875 C20.04748047 10.06224609 20.04748047 10.06224609 19 9.890625 C15.59984233 9.12343322 12.51184213 7.92573425 9.26171875 6.66796875 C0.89603404 3.64969252 -5.47559745 3.3612552 -13.92578125 6.23046875 C-15.94815177 7.18441711 -17.95405085 8.17582226 -19.92578125 9.23046875 C-20.91578125 9.56046875 -21.90578125 9.89046875 -22.92578125 10.23046875 C-22.92578125 10.89046875 -22.92578125 11.55046875 -22.92578125 12.23046875 C-23.58578125 12.23046875 -24.24578125 12.23046875 -24.92578125 12.23046875 C-25.25578125 13.55046875 -25.58578125 14.87046875 -25.92578125 16.23046875 C-27.24578125 16.56046875 -28.56578125 16.89046875 -29.92578125 17.23046875 C-29.37694636 21.83892741 -28.82551921 26.44706587 -28.27172852 31.05493164 C-28.08384759 32.62125331 -27.89666488 34.18765891 -27.71020508 35.75415039 C-27.44147029 38.010806 -27.17019385 40.26714402 -26.8984375 42.5234375 C-26.81610367 43.21946579 -26.73376984 43.91549408 -26.64894104 44.63261414 C-26.21631462 48.20310944 -25.69067382 51.71553439 -24.92578125 55.23046875 C-23.93578125 54.73546875 -23.93578125 54.73546875 -22.92578125 54.23046875 C-22.92578125 55.22046875 -22.92578125 56.21046875 -22.92578125 57.23046875 C-22.26578125 57.23046875 -21.60578125 57.23046875 -20.92578125 57.23046875 C-16.92578125 63.98046875 -16.92578125 63.98046875 -16.92578125 66.23046875 C-16.49265625 66.66359375 -16.05953125 67.09671875 -15.61328125 67.54296875 C-13.1741711 69.9820789 -10.92578125 72.68386456 -10.92578125 76.23046875 C-10.26578125 76.89046875 -9.60578125 77.55046875 -8.92578125 78.23046875 C-7.86899728 79.59388434 -6.82862919 80.97010849 -5.80078125 82.35546875 C-4.99253906 83.44214844 -4.99253906 83.44214844 -4.16796875 84.55078125 C-3.75804687 85.10507812 -3.348125 85.659375 -2.92578125 86.23046875 C0.53921875 85.24046875 0.53921875 85.24046875 4.07421875 84.23046875 C4.07421875 83.57046875 4.07421875 82.91046875 4.07421875 82.23046875 C4.73421875 82.23046875 5.39421875 82.23046875 6.07421875 82.23046875 C6.07421875 91.14046875 6.07421875 100.05046875 6.07421875 109.23046875 C2.25045576 107.70096355 0.05866341 106.68907022 -3.05078125 104.29296875 C-3.71335937 103.78894531 -4.3759375 103.28492188 -5.05859375 102.765625 C-6.79403482 101.33878747 -8.36996777 99.84909458 -9.92578125 98.23046875 C-10.25578125 98.89046875 -10.58578125 99.55046875 -10.92578125 100.23046875 C-12.24578125 100.23046875 -13.56578125 100.23046875 -14.92578125 100.23046875 C-23.38531262 84.88121595 -26.86656597 69.48663634 -28.92578125 52.23046875 C-29.06258301 51.09270996 -29.19938477 49.95495117 -29.34033203 48.78271484 C-29.77792846 45.07917893 -30.19957759 41.37424677 -30.61328125 37.66796875 C-30.74492676 36.50297852 -30.87657227 35.33798828 -31.01220703 34.13769531 C-33.22604746 13.32223199 -33.22604746 13.32223199 -29.17578125 8.23046875 C-24.64964204 3.10998802 -19.49031688 2.13446529 -12.92578125 1.23046875 C-11.68634766 1.03904297 -11.68634766 1.03904297 -10.421875 0.84375 C-6.95710214 0.40423186 -3.48036713 0.27415442 0 0 Z " fill="#D4D4D6" transform="translate(274.92578125,209.76953125)"/>
<path d="M0 0 C4.65449739 3.93046446 6.88546832 8.32763443 7.8125 14.375 C8.80686082 26.57722779 6.6711686 36.85701928 2.8125 48.375 C2.49023438 49.36757813 2.16796875 50.36015625 1.8359375 51.3828125 C-1.03451466 59.34519718 -5.87369956 66.70810534 -12.1875 72.375 C-14.92736551 72.375 -16.04190948 71.4887426 -18.1875 69.8125 C-20.37645145 67.14471542 -21.64974692 64.50082707 -23.12109375 61.40234375 C-25.51922972 56.8432501 -28.89507258 53.23661828 -33.1875 50.375 C-32.5275 50.375 -31.8675 50.375 -31.1875 50.375 C-30.6925 49.385 -30.6925 49.385 -30.1875 48.375 C-27.2175 48.87 -27.2175 48.87 -24.1875 49.375 C-23.8575 48.385 -23.5275 47.395 -23.1875 46.375 C-22.1975 46.375 -21.2075 46.375 -20.1875 46.375 C-16.90976496 45.62349977 -16.90976496 45.62349977 -15.1875 42.375 C-14.5275 42.065625 -13.8675 41.75625 -13.1875 41.4375 C-10.65751782 40.09344697 -10.36388411 38.94834024 -9.1875 36.375 C-7.29229336 33.88754129 -5.39856147 31.58606147 -3.1875 29.375 C-3.538125 28.776875 -3.88875 28.17875 -4.25 27.5625 C-5.1875 25.375 -5.1875 25.375 -4.1875 22.375 C-4.1875 21.385 -4.1875 20.395 -4.1875 19.375 C-3.87661632 17.70400023 -3.54669668 16.03628463 -3.1875 14.375 C-3.8475 14.045 -4.5075 13.715 -5.1875 13.375 C-6.1875 12.375 -6.1875 12.375 -7.1875 9.375 C-7.8475 9.21 -8.5075 9.045 -9.1875 8.875 C-9.8475 8.71 -10.5075 8.545 -11.1875 8.375 C-11.6825 6.89 -11.6825 6.89 -12.1875 5.375 C-12.93 5.41625 -13.6725 5.4575 -14.4375 5.5 C-17.31808965 5.36906411 -18.69095008 4.70649329 -21.1875 3.375 C-22.1775 3.375 -23.1675 3.375 -24.1875 3.375 C-25.4559375 3.3440625 -25.4559375 3.3440625 -26.75 3.3125 C-29.19657507 3.20281247 -29.19657507 3.20281247 -31.1875 4.375 C-34.30906659 4.22723353 -37.40252224 3.97506102 -40.51367188 3.69140625 C-44.30491748 3.38390661 -47.48810175 3.54211484 -51.1875 4.375 C-51.5175 4.045 -51.8475 3.715 -52.1875 3.375 C-55.4952841 3.13711142 -58.79574645 2.97959703 -62.109375 2.85742188 C-66.19588175 2.65835491 -69.49522825 2.17025812 -73.1875 0.375 C-70.47413365 -0.98168318 -69.15553531 -0.22673867 -66.1875 0.375 C-57.23825437 0.88864324 -48.69523006 0.46899535 -39.875 -1.125 C-28.05049551 -3.24778591 -11.05074883 -5.63371509 0 0 Z " fill="#EFEFEF" transform="translate(378.1875,224.625)"/>
<path d="M0 0 C0 0.99 0 1.98 0 3 C-0.66 3.33 -1.32 3.66 -2 4 C-1.505 4.99 -1.505 4.99 -1 6 C-2.65 6 -4.3 6 -6 6 C-6.4640625 6.928125 -6.4640625 6.928125 -6.9375 7.875 C-7.625 9.25 -8.3125 10.625 -9 12 C-9.66 12 -10.32 12 -11 12 C-11.0928125 12.928125 -11.0928125 12.928125 -11.1875 13.875 C-11.455625 14.57625 -11.72375 15.2775 -12 16 C-13.2375 16.433125 -13.2375 16.433125 -14.5 16.875 C-15.7375 17.431875 -15.7375 17.431875 -17 18 C-17.144375 18.886875 -17.28875 19.77375 -17.4375 20.6875 C-18.22962426 25.35223174 -20.82847475 27.63577449 -24 31 C-27.69682567 35.15892888 -30.09420832 39.75250731 -32.6328125 44.671875 C-34 47 -34 47 -36 48 C-38.84265028 52.32577216 -41.19745348 56.92282078 -43.0625 61.75 C-44 64 -44 64 -46 66 C-46.6425235 68.06874034 -46.6425235 68.06874034 -47 70 C-47.66 70 -48.32 70 -49 70 C-49.144375 70.721875 -49.28875 71.44375 -49.4375 72.1875 C-49.80048873 74.00244364 -50.17468541 75.8151986 -50.5625 77.625 C-51.09058121 80.08923328 -51.09058121 80.08923328 -51 83 C-51.99 83.495 -51.99 83.495 -53 84 C-53.96230083 85.93370345 -53.96230083 85.93370345 -54.8125 88.3125 C-56.31688086 92.24746636 -57.89996946 96.12910812 -59.5625 100 C-61.4740596 104.55021548 -63.0307714 109.08259412 -64.32421875 113.84375 C-65 116 -65 116 -66.14453125 118.15625 C-66.42683594 118.7646875 -66.70914063 119.373125 -67 120 C-66.505 120.99 -66.505 120.99 -66 122 C-66.66 122 -67.32 122 -68 122 C-67.67 122.99 -67.34 123.98 -67 125 C-67.99 125.99 -67.99 125.99 -69 127 C-69.72640955 129.31543043 -70.38431458 131.65269935 -71 134 C-72.05189886 137.87887704 -73.0307132 141.48341642 -75 145 C-75.66 145 -76.32 145 -77 145 C-77.1546875 146.5778125 -77.1546875 146.5778125 -77.3125 148.1875 C-78.15881778 152.88071677 -79.65336769 155.65336769 -83 159 C-82.34 159.33 -81.68 159.66 -81 160 C-81.66 160 -82.32 160 -83 160 C-82.67 161.32 -82.34 162.64 -82 164 C-82.66 164 -83.32 164 -84 164 C-84.495 164.99 -84.495 164.99 -85 166 C-86.485 166.99 -86.485 166.99 -88 168 C-88.99 168.99 -88.99 168.99 -90 170 C-89.42586688 161.95343733 -87.40187498 154.52753683 -85.125 146.8125 C-84.92881073 146.1417041 -84.73262146 145.4709082 -84.53048706 144.77978516 C-76.03545454 115.85980075 -64.95642272 87.7282154 -51 61 C-50.12408203 59.29457031 -50.12408203 59.29457031 -49.23046875 57.5546875 C-45.28542808 50.02081751 -40.90865296 42.94271806 -36 36 C-35.56558594 35.3822168 -35.13117188 34.76443359 -34.68359375 34.12792969 C-10.50613592 0 -10.50613592 0 0 0 Z " fill="#484A4D" transform="translate(281,32)"/>
<path d="M0 0 C-2.54159118 0.87978156 -4.04801733 0.99183705 -6.734375 0.53515625 C-10.09067358 -0.01485919 -13.22659081 -0.1329588 -16.625 -0.125 C-17.73101562 -0.12757813 -18.83703125 -0.13015625 -19.9765625 -0.1328125 C-22.90103709 -0.10558496 -22.90103709 -0.10558496 -25.2734375 0.5703125 C-27 1 -27 1 -29 0 C-29.33 0.99 -29.66 1.98 -30 3 C-30.763125 3.28875 -31.52625 3.5775 -32.3125 3.875 C-35.65702604 5.27503415 -36.89706593 7.09940129 -39 10 C-39.66 10.66 -40.32 11.32 -41 12 C-40.34 12.99 -39.68 13.98 -39 15 C-39.495 15.8971875 -39.495 15.8971875 -40 16.8125 C-42.40032414 22.06320906 -39.78869491 27.87240792 -38 33 C-37.34 33 -36.68 33 -36 33 C-35.731875 34.03125 -35.46375 35.0625 -35.1875 36.125 C-34.17639728 39.6531031 -32.82713539 42.80251308 -31 46 C-30.34 46.33 -29.68 46.66 -29 47 C-29 47.66 -29 48.32 -29 49 C-27.515 49.495 -27.515 49.495 -26 50 C-26 50.99 -26 51.98 -26 53 C-25.443125 52.7525 -24.88625 52.505 -24.3125 52.25 C-22 52 -22 52 -19.375 53.9375 C-18.59125 54.618125 -17.8075 55.29875 -17 56 C-16.34 56 -15.68 56 -15 56 C-14.54625 56.495 -14.0925 56.99 -13.625 57.5 C-11.87871033 59.45218674 -11.87871033 59.45218674 -8 59 C-10.31 63.29 -12.62 67.58 -15 72 C-15.66 72 -16.32 72 -17 72 C-17 72.66 -17 73.32 -17 74 C-18.75 75.6875 -18.75 75.6875 -21 77 C-23.73702536 76.75817447 -24.75925741 76.26205234 -26.6328125 74.22265625 C-27.12523437 73.50980469 -27.61765625 72.79695313 -28.125 72.0625 C-29.679928 69.84290071 -31.07881003 67.92118997 -33 66 C-33 65.34 -33 64.68 -33 64 C-33.474375 63.525625 -33.94875 63.05125 -34.4375 62.5625 C-36 61 -36 61 -37 58 C-37.66 57.34 -38.32 56.68 -39 56 C-39.71706982 54.01751285 -40.38290413 52.01584651 -41 50 C-41.495 48.515 -41.495 48.515 -42 47 C-43.98 47.495 -43.98 47.495 -46 48 C-47.79448736 39.32664444 -49.26563853 30.68782331 -50.1875 21.875 C-50.27112793 21.08246826 -50.35475586 20.28993652 -50.44091797 19.47338867 C-51.59528909 7.81175785 -51.59528909 7.81175785 -49.625 5.125 C-48 4 -48 4 -46 4 C-46 3.34 -46 2.68 -46 2 C-45.34 2 -44.68 2 -44 2 C-44 1.34 -44 0.68 -44 0 C-39.71622553 -2.57026468 -35.82984661 -4.60471098 -31 -6 C-30.38125 -6.20625 -29.7625 -6.4125 -29.125 -6.625 C-18.56287734 -8.488904 -9.64299181 -3.88625282 0 0 Z " fill="#EFEFEF" transform="translate(296,220)"/>
<path d="M0 0 C4.70778041 1.06999283 9.43430302 1.95387931 14.19140625 2.7734375 C14.8781543 2.89243408 15.56490234 3.01143066 16.27246094 3.1340332 C18.14061653 3.45519481 20.00973708 3.77072852 21.87890625 4.0859375 C22.82507813 4.27542969 23.77125 4.46492187 24.74609375 4.66015625 C29.07115373 5.24797612 33.33174914 5.23277151 37.69140625 5.2109375 C38.6148584 5.209729 39.53831055 5.20852051 40.48974609 5.20727539 C46.34812254 5.17452169 52.16109646 4.93510972 58.00390625 4.5234375 C69.39645401 3.76093894 79.51591272 3.85414282 88.69140625 11.3984375 C91.1922657 14.47092197 93.06620134 17.57722541 94.87890625 21.0859375 C95.43578125 22.1171875 95.99265625 23.1484375 96.56640625 24.2109375 C102.42234061 37.03822228 97.61586583 53.32515884 93.16796875 65.921875 C88.00995533 78.58245339 81.26713464 94.93111007 69.87890625 103.0859375 C67.89890625 103.7459375 65.91890625 104.4059375 63.87890625 105.0859375 C63.87890625 100.1359375 63.87890625 95.1859375 63.87890625 90.0859375 C66.87890625 94.0859375 66.87890625 94.0859375 66.87890625 96.0859375 C67.66265625 95.5909375 68.44640625 95.0959375 69.25390625 94.5859375 C71.87890625 93.0859375 71.87890625 93.0859375 73.87890625 93.0859375 C73.87890625 92.4259375 73.87890625 91.7659375 73.87890625 91.0859375 C74.45898438 90.53421875 75.0390625 89.9825 75.63671875 89.4140625 C78.40246585 86.54231115 80.02937975 83.38308206 81.75390625 79.8359375 C82.26945068 78.78780884 82.26945068 78.78780884 82.79541016 77.71850586 C86.34339515 70.35664281 89.27285502 62.82693834 91.87890625 55.0859375 C92.28109375 53.91224609 92.28109375 53.91224609 92.69140625 52.71484375 C94.15448412 47.50262885 94.07474367 42.15040077 94.12890625 36.7734375 C94.13841309 35.98340332 94.14791992 35.19336914 94.15771484 34.37939453 C94.17674705 28.9274589 94.17674705 28.9274589 91.87890625 24.0859375 C91.07453125 23.4465625 90.27015625 22.8071875 89.44140625 22.1484375 C86.87890625 20.0859375 86.87890625 20.0859375 85.56640625 17.5859375 C82.24068952 12.65894976 76.67355482 11.11272451 71.06640625 9.8359375 C63.27797408 8.48194852 55.64164798 8.79214721 47.87890625 10.0859375 C46.88890625 10.0859375 45.89890625 10.0859375 44.87890625 10.0859375 C43.85925781 10.13234375 42.83960938 10.17875 41.7890625 10.2265625 C30.35734109 10.55152514 19.99644773 8.57927888 8.87890625 6.0859375 C-7.88743671 2.37599118 -22.05725696 1.48265728 -39.12109375 4.0859375 C-40.39855469 4.23675781 -41.67601562 4.38757813 -42.9921875 4.54296875 C-44.02472656 4.72214844 -45.05726563 4.90132812 -46.12109375 5.0859375 C-47.412748 6.83432894 -47.412748 6.83432894 -48.12109375 9.0859375 C-48.80171875 9.8696875 -49.48234375 10.6534375 -50.18359375 11.4609375 C-52.36503652 14.41644061 -52.78479066 16.47067926 -53.12109375 20.0859375 C-53.45109375 20.0859375 -53.78109375 20.0859375 -54.12109375 20.0859375 C-54.59383166 16.22524454 -54.90501421 12.6631108 -53.13671875 9.10546875 C-47.44378392 1.8613691 -38.90039139 -1.3514507 -30.0078125 -2.62890625 C-19.46184683 -3.67065929 -10.2408255 -2.32843817 0 0 Z " fill="#A7A8AA" transform="translate(296.12109375,208.9140625)"/>
<path d="M0 0 C10.81775926 -0.47934981 20.80903843 2.18476683 31.28222656 4.59765625 C45.70680441 7.86702541 62.50389463 11.08877268 77.07421875 7.23046875 C80.41222782 7.03745462 83.73350639 7.12417336 87.07421875 7.23046875 C87.76 7.24722656 88.44578125 7.26398438 89.15234375 7.28125 C96.09563793 7.77518353 103.46252064 10.92423779 108.07421875 16.23046875 C108.54859375 17.05546875 109.02296875 17.88046875 109.51171875 18.73046875 C111.12723603 21.3152964 112.65310218 22.45498327 115.07421875 24.23046875 C121.06126747 42.1916149 111.86017034 63.23228746 104.07421875 79.23046875 C102.03249904 83.07549497 99.86290749 86.87650526 97.07421875 90.23046875 C96.41421875 90.23046875 95.75421875 90.23046875 95.07421875 90.23046875 C95.07421875 90.89046875 95.07421875 91.55046875 95.07421875 92.23046875 C90.68960337 95.23046875 90.68960337 95.23046875 88.07421875 95.23046875 C87.40334755 93.60720005 86.73764846 91.98179297 86.07421875 90.35546875 C85.70296875 89.45054687 85.33171875 88.545625 84.94921875 87.61328125 C84.07421875 85.23046875 84.07421875 85.23046875 84.07421875 83.23046875 C85.55921875 83.72546875 85.55921875 83.72546875 87.07421875 84.23046875 C87.07421875 84.89046875 87.07421875 85.55046875 87.07421875 86.23046875 C89.05421875 86.72546875 89.05421875 86.72546875 91.07421875 87.23046875 C91.40421875 86.57046875 91.73421875 85.91046875 92.07421875 85.23046875 C92.99660626 84.154823 93.93655668 83.09416071 94.88671875 82.04296875 C101.49166893 74.32146747 104.09871476 65.76199985 107.07421875 56.23046875 C107.3990625 55.31136719 107.72390625 54.39226562 108.05859375 53.4453125 C109.96649743 47.62260646 110.37722294 42.06319195 110.44921875 35.98046875 C110.46315674 35.22338623 110.47709473 34.46630371 110.49145508 33.6862793 C110.43925727 27.51812582 109.21220723 22.70251793 105.07421875 17.91796875 C101.08180628 14.54937073 98.21346567 13.81227029 93.07421875 13.23046875 C93.07421875 12.57046875 93.07421875 11.91046875 93.07421875 11.23046875 C85.29789468 11.13957665 77.58326353 11.11425826 69.82421875 11.73046875 C55.92246373 12.81802101 43.70622003 11.50934572 30.22265625 8.0234375 C12.92713377 3.66736918 -5.09751983 -0.42992813 -21.92578125 7.23046875 C-22.91578125 7.56046875 -23.90578125 7.89046875 -24.92578125 8.23046875 C-24.92578125 8.89046875 -24.92578125 9.55046875 -24.92578125 10.23046875 C-25.91578125 10.23046875 -26.90578125 10.23046875 -27.92578125 10.23046875 C-27.92578125 10.89046875 -27.92578125 11.55046875 -27.92578125 12.23046875 C-28.58578125 12.23046875 -29.24578125 12.23046875 -29.92578125 12.23046875 C-30.58578125 13.55046875 -31.24578125 14.87046875 -31.92578125 16.23046875 C-31.65907751 11.82985699 -29.86883171 8.99048844 -26.984375 5.80859375 C-19.80707369 0.30645005 -8.67743025 0.68353589 0 0 Z " fill="#C5C6C8" transform="translate(274.92578125,209.76953125)"/>
<path d="M0 0 C1.67578125 1.31640625 1.67578125 1.31640625 3.98828125 3.69140625 C3.98828125 4.35140625 3.98828125 5.01140625 3.98828125 5.69140625 C4.60703125 5.93890625 5.22578125 6.18640625 5.86328125 6.44140625 C8.33896812 7.89769264 8.93953127 9.06953131 9.98828125 11.69140625 C10.64828125 11.69140625 11.30828125 11.69140625 11.98828125 11.69140625 C17.27037444 20.31882513 19.22623392 28.5082472 17.98828125 38.69140625 C16.42836003 41.33974708 15.71898295 42.44087995 12.80078125 43.44140625 C12.20265625 43.52390625 11.60453125 43.60640625 10.98828125 43.69140625 C9.11680295 40.8841888 8.6544795 39.76107661 8.12890625 36.59375 C6.21531907 25.92124064 4.35735443 16.52753395 -3.82421875 8.75390625 C-13.30371168 2.6201167 -24.08892225 2.31706595 -35.01171875 4.56640625 C-35.78257812 4.746875 -36.5534375 4.92734375 -37.34765625 5.11328125 C-42.84121015 6.30543078 -48.44391796 6.93726609 -54.01171875 7.69140625 C-53.01171875 4.69140625 -53.01171875 4.69140625 -50.52734375 3.2265625 C-34.22163289 -4.12661094 -16.49313922 -10.72854687 0 0 Z " fill="#35373A" transform="translate(395.01171875,195.30859375)"/>
<path d="M0 0 C11.94255021 3.02313263 25.94711556 6.2627757 37.72119141 1.41992188 C40.37736118 0.99965923 42.98928482 0.642456 45.65869141 0.35742188 C51.23415517 -0.26232754 51.23415517 -0.26232754 56.77197266 -1.15039062 C65.76242649 -2.46025807 76.95373462 -1.73112841 84.72119141 3.41992188 C85.85791016 5.49414062 85.85791016 5.49414062 86.72119141 7.41992188 C87.71119141 7.91492188 87.71119141 7.91492188 88.72119141 8.41992188 C95.26132807 17.11851948 97.3621845 28.73670363 96.72119141 39.41992188 C98.04119141 39.08992188 99.36119141 38.75992188 100.72119141 38.41992188 C102.54094623 43.54832182 100.58110131 47.59676569 98.72119141 52.41992188 C98.06119141 52.08992188 97.40119141 51.75992188 96.72119141 51.41992188 C96.72119141 50.75992188 96.72119141 50.09992188 96.72119141 49.41992188 C95.40119141 49.08992188 94.08119141 48.75992188 92.72119141 48.41992188 C92.76759766 47.72769531 92.81400391 47.03546875 92.86181641 46.32226562 C93.30569494 34.2899869 91.00985335 21.62033664 82.72119141 12.41992188 C81.99931641 11.88882813 81.27744141 11.35773438 80.53369141 10.81054688 C79.93556641 10.35164062 79.33744141 9.89273438 78.72119141 9.41992188 C78.72119141 8.75992188 78.72119141 8.09992188 78.72119141 7.41992188 C77.41408203 7.20722656 77.41408203 7.20722656 76.08056641 6.99023438 C74.02299789 6.64092623 71.96924427 6.26659187 69.92431641 5.84960938 C60.35757508 4.05268177 51.34379846 4.61656661 41.72119141 5.41992188 C39.38788629 5.60777271 37.05455609 5.79531244 34.72119141 5.98242188 C33.32900391 6.10810547 33.32900391 6.10810547 31.90869141 6.23632812 C23.04005471 6.74714421 15.1674272 5.97726551 6.47119141 4.10742188 C5.36727051 3.87958008 4.26334961 3.65173828 3.12597656 3.41699219 C-1.42282575 2.47336834 -5.964224 1.50495365 -10.48974609 0.45507812 C-23.20883276 -2.47002075 -38.37812482 -5.47574334 -50.36083984 1.19726562 C-56.94119331 5.39207343 -60.06095661 8.85313274 -62.27880859 16.41992188 C-62.60880859 16.41992188 -62.93880859 16.41992188 -63.27880859 16.41992188 C-63.63323998 13.34818316 -63.76961267 10.48211253 -63.27880859 7.41992188 C-60.90380859 5.29492188 -60.90380859 5.29492188 -59.25537109 4.45117188 C-56.73536363 3.13638537 -54.56576216 1.48077284 -52.27880859 -0.20507812 C-37.27516142 -11.21737045 -16.47021335 -4.20178728 0 0 Z " fill="#6D6E6E" transform="translate(304.27880859375,205.580078125)"/>
<path d="M0 0 C0.84723633 -0.00064453 1.69447266 -0.00128906 2.56738281 -0.00195312 C16.68674562 0.1201963 16.68674562 0.1201963 22.6875 5.1875 C28.74374905 13.30750271 28.68265178 23.46928545 27.6875 33.1875 C26.55670893 39.33505461 24.67014515 45.26937876 22.6875 51.1875 C22.36523438 52.18007813 22.04296875 53.17265625 21.7109375 54.1953125 C18.84048534 62.15769718 14.00130044 69.52060534 7.6875 75.1875 C4.94763449 75.1875 3.83309052 74.3012426 1.6875 72.625 C-1.81531718 68.35594156 -4.12090979 63.5797466 -5.3125 58.1875 C0.4375 58.9375 0.4375 58.9375 2.6875 61.1875 C3.47125 60.5275 4.255 59.8675 5.0625 59.1875 C7.6875 57.1875 7.6875 57.1875 9.6875 57.1875 C10.98447078 55.53535067 10.98447078 55.53535067 12.1875 53.4375 C12.6103125 52.74140625 13.033125 52.0453125 13.46875 51.328125 C14.71404645 49.20700271 14.71404645 49.20700271 15.71875 46.984375 C16.6875 45.1875 16.6875 45.1875 18.6875 44.1875 C18.9445751 42.22730233 19.19579958 40.26440812 19.34375 38.29296875 C19.6875 36.1875 19.6875 36.1875 20.703125 34.32421875 C22.04293712 31.41597577 21.95236958 29.00202595 21.9375 25.8125 C21.94265625 24.71164063 21.9478125 23.61078125 21.953125 22.4765625 C21.5283651 17.21703549 20.20364375 13.26816172 16.6875 9.3125 C16.171875 8.71695313 15.65625 8.12140625 15.125 7.5078125 C13.76730822 5.9620169 13.76730822 5.9620169 11.6875 6.1875 C11.6875 5.5275 11.6875 4.8675 11.6875 4.1875 C10.6975 4.5175 9.7075 4.8475 8.6875 5.1875 C7.97078125 4.88199219 7.2540625 4.57648438 6.515625 4.26171875 C2.80876002 2.85372445 -0.65845481 2.93131971 -4.5625 3 C-5.31523193 3.00644531 -6.06796387 3.01289063 -6.84350586 3.01953125 C-12.05596455 3.09154363 -17.14952055 3.43652117 -22.3125 4.1875 C-22.3125 3.5275 -22.3125 2.8675 -22.3125 2.1875 C-14.86495522 0.49212395 -7.60894738 -0.00559276 0 0 Z " fill="#E2E3E4" transform="translate(358.3125,221.8125)"/>
<path d="M0 0 C0.33 0 0.66 0 1 0 C1.03738281 1.08539063 1.07476562 2.17078125 1.11328125 3.2890625 C1.17897875 4.73440739 1.24542476 6.17971839 1.3125 7.625 C1.33505859 8.33785156 1.35761719 9.05070312 1.38085938 9.78515625 C1.69257158 15.96272542 3.44892882 20.61684712 7.6875 25.25 C10 28 10 28 10 30 C7.36 30 4.72 30 2 30 C1.67 30.99 1.34 31.98 1 33 C2.485 33.495 2.485 33.495 4 34 C4.33 34.66 4.66 35.32 5 36 C19.18192843 46.56692707 37.95621631 47.38932501 55 47 C54.67 47.99 54.34 48.98 54 50 C48.25665431 52.31275666 42.68956437 52.30225641 36.5625 52.25 C35.65951172 52.25773437 34.75652344 52.26546875 33.82617188 52.2734375 C19.44099004 52.23177151 6.26327172 46.90464872 -4.16015625 36.93359375 C-10.37414847 30.24068113 -15.81391701 22.59933079 -19 14 C-17.68 13.01 -16.36 12.02 -15 11 C-14.01 11.66 -13.02 12.32 -12 13 C-12 13.66 -12 14.32 -12 15 C-11.43796875 15.26554687 -10.8759375 15.53109375 -10.296875 15.8046875 C-7.82069778 17.09331034 -5.56155118 18.56130361 -3.25 20.125 C-2.45078125 20.66382813 -1.6515625 21.20265625 -0.828125 21.7578125 C-0.22484375 22.16773438 0.3784375 22.57765625 1 23 C0.67 22.34 0.34 21.68 0 21 C-0.08400529 19.40552536 -0.10727467 17.80759455 -0.09765625 16.2109375 C-0.09443359 15.26992188 -0.09121094 14.32890625 -0.08789062 13.359375 C-0.07951172 12.37453125 -0.07113281 11.3896875 -0.0625 10.375 C-0.05798828 9.38242187 -0.05347656 8.38984375 -0.04882812 7.3671875 C-0.03702145 4.9113984 -0.020554 2.45572896 0 0 Z " fill="#757677" transform="translate(280,296)"/>
<path d="M0 0 C0 3.20395416 -0.74335022 5.09399739 -2 8 C6.43217766 6.0443681 6.43217766 6.0443681 14 2 C14.99 3.485 14.99 3.485 16 5 C11.58465384 9.09035875 7.57605431 12.57562856 2 15 C1.030625 15.495 0.06125 15.99 -0.9375 16.5 C-10.41030723 21.13974232 -10.41030723 21.13974232 -16 21 C-17.04027344 21.33128906 -18.08054687 21.66257812 -19.15234375 22.00390625 C-23.26893334 23.06962234 -26.86923622 23.17029344 -31.0625 22.875 C-31.79404297 22.82786865 -32.52558594 22.7807373 -33.27929688 22.73217773 C-40.42277569 22.15776163 -47.3312484 20.69393167 -54 18 C-54.33 17.34 -54.66 16.68 -55 16 C-55.598125 15.87625 -56.19625 15.7525 -56.8125 15.625 C-59.7402315 14.78850529 -61.05427807 13.29317228 -63 11 C-63 10.34 -63 9.68 -63 9 C-59.92247735 7.35978188 -58.55426586 6.84670849 -55.1328125 7.79296875 C-54.14023437 8.25316406 -53.14765625 8.71335937 -52.125 9.1875 C-51.06796875 9.65929687 -50.0109375 10.13109375 -48.921875 10.6171875 C-47.27749962 11.39540793 -45.63765286 12.1840267 -44.015625 13.0078125 C-37.82098315 16.04613683 -31.26763917 15.88794592 -24.75 13.9375 C-15.75862309 10.55571653 -7.21620436 6.37303632 0 0 Z " fill="#616262" transform="translate(351,319)"/>
<path d="M0 0 C-3.60079063 1.09900062 -7.06432665 1.17036992 -10.8125 1.3125 C-16.79983935 1.69176033 -20.13049546 2.61251858 -25 6 C-25.763125 6.12375 -26.52625 6.2475 -27.3125 6.375 C-27.869375 6.58125 -28.42625 6.7875 -29 7 C-30.12949221 9.80376352 -30.12949221 9.80376352 -31 13 C-32 14.66666667 -33 16.33333333 -34 18 C-36.25531716 23.17035294 -35.9743253 26.97641508 -35.125 32.375 C-35.02058594 33.11105469 -34.91617188 33.84710938 -34.80859375 34.60546875 C-34.55145224 36.40545935 -34.27744246 38.20302654 -34 40 C-33.34 40 -32.68 40 -32 40 C-31.67 40.99 -31.34 41.98 -31 43 C-30.01 43.66 -29.02 44.32 -28 45 C-26.8125 48.625 -26.8125 48.625 -26 52 C-25.34 52 -24.68 52 -24 52 C-22.74335022 54.90600261 -22 56.79604584 -22 60 C-21.01 60 -20.02 60 -19 60 C-17 62.5 -17 62.5 -15 65 C-10.55306409 68.87753529 -10.55306409 68.87753529 -5 70 C-3.25 71.8125 -3.25 71.8125 -2 74 C-2.495 75.485 -2.495 75.485 -3 77 C-3.66 77 -4.32 77 -5 77 C-5 77.66 -5 78.32 -5 79 C-6.75 80.6875 -6.75 80.6875 -9 82 C-11.73702536 81.75817447 -12.75925741 81.26205234 -14.6328125 79.22265625 C-15.12523437 78.50980469 -15.61765625 77.79695313 -16.125 77.0625 C-17.679928 74.84290071 -19.07881003 72.92118997 -21 71 C-21 70.34 -21 69.68 -21 69 C-21.474375 68.525625 -21.94875 68.05125 -22.4375 67.5625 C-24 66 -24 66 -25 63 C-25.66 62.34 -26.32 61.68 -27 61 C-27.71706982 59.01751285 -28.38290413 57.01584651 -29 55 C-29.495 53.515 -29.495 53.515 -30 52 C-31.98 52.495 -31.98 52.495 -34 53 C-35.79448736 44.32664444 -37.26563853 35.68782331 -38.1875 26.875 C-38.27112793 26.08246826 -38.35475586 25.28993652 -38.44091797 24.47338867 C-39.59528909 12.81175785 -39.59528909 12.81175785 -37.625 10.125 C-36 9 -36 9 -34 9 C-34 8.34 -34 7.68 -34 7 C-33.34 7 -32.68 7 -32 7 C-32 6.34 -32 5.68 -32 5 C-27.71622553 2.42973532 -23.82984661 0.39528902 -19 -1 C-18.38125 -1.20625 -17.7625 -1.4125 -17.125 -1.625 C-10.94951263 -2.71479189 -5.84734915 -1.94911638 0 0 Z " fill="#E3E4E5" transform="translate(284,215)"/>
<path d="M0 0 C2.23413013 3.35119519 2.23847762 4.4177755 2.1953125 8.32421875 C2.18886719 9.35224609 2.18242187 10.38027344 2.17578125 11.43945312 C2.15902344 12.51130859 2.14226562 13.58316406 2.125 14.6875 C2.11597656 15.77095703 2.10695313 16.85441406 2.09765625 17.97070312 C2.0740734 20.6473571 2.04116126 23.32356797 2 26 C2.99 25.01 3.98 24.02 5 23 C6.06507146 27.65424026 5.83119718 30.72822116 4.453125 35.28125 C4.1025 36.45300781 3.751875 37.62476563 3.390625 38.83203125 C3.01421875 40.04246094 2.6378125 41.25289063 2.25 42.5 C1.8890625 43.71042969 1.528125 44.92085938 1.15625 46.16796875 C-0.53051498 51.72329253 -2.29227998 56.84703317 -5 62 C-5.99 62 -6.98 62 -8 62 C-8 58.37 -8 54.74 -8 51 C-8.46148437 51.87140625 -8.92296875 52.7428125 -9.3984375 53.640625 C-16.03720026 65.87474363 -23.6445876 76.93976434 -36 84 C-36.8700869 80.51965238 -36.90387676 78.42190558 -36 75 C-35.77609683 72.24682026 -35.58606338 69.50694671 -35.4375 66.75 C-35.39431641 66.00492187 -35.35113281 65.25984375 -35.30664062 64.4921875 C-35.20103275 62.661651 -35.10005799 60.83084824 -35 59 C-34.67 59 -34.34 59 -34 59 C-34 65.27 -34 71.54 -34 78 C-15.64617811 66.52886132 -6.43180206 45.40323778 -1.54296875 24.78125 C-0.37792029 18.81351978 0.11634275 13.14673113 0.0625 7.0625 C0.05798828 6.37865234 0.05347656 5.69480469 0.04882812 4.99023438 C0.0371956 3.32678396 0.01926694 1.6633795 0 0 Z " fill="#868688" transform="translate(394,236)"/>
<path d="M0 0 C10.81775926 -0.47934981 20.80903843 2.18476683 31.28222656 4.59765625 C45.70680441 7.86702541 62.50389463 11.08877268 77.07421875 7.23046875 C80.41222782 7.03745462 83.73350639 7.12417336 87.07421875 7.23046875 C87.76 7.24722656 88.44578125 7.26398438 89.15234375 7.28125 C95.62162395 7.74146302 101.94828832 10.54720821 106.8671875 14.76953125 C108.07421875 16.23046875 108.07421875 16.23046875 108.07421875 18.23046875 C105.10228025 17.10595148 102.73981188 16.00753084 100.07421875 14.23046875 C97.75033928 13.83659087 95.41628126 13.4956079 93.07421875 13.23046875 C93.07421875 12.57046875 93.07421875 11.91046875 93.07421875 11.23046875 C85.29789468 11.13957665 77.58326353 11.11425826 69.82421875 11.73046875 C55.92246373 12.81802101 43.70622003 11.50934572 30.22265625 8.0234375 C12.92713377 3.66736918 -5.09751983 -0.42992813 -21.92578125 7.23046875 C-22.91578125 7.56046875 -23.90578125 7.89046875 -24.92578125 8.23046875 C-24.92578125 8.89046875 -24.92578125 9.55046875 -24.92578125 10.23046875 C-25.91578125 10.23046875 -26.90578125 10.23046875 -27.92578125 10.23046875 C-27.92578125 10.89046875 -27.92578125 11.55046875 -27.92578125 12.23046875 C-28.58578125 12.23046875 -29.24578125 12.23046875 -29.92578125 12.23046875 C-30.58578125 13.55046875 -31.24578125 14.87046875 -31.92578125 16.23046875 C-31.65907751 11.82985699 -29.86883171 8.99048844 -26.984375 5.80859375 C-19.80707369 0.30645005 -8.67743025 0.68353589 0 0 Z " fill="#B6B7B9" transform="translate(274.92578125,209.76953125)"/>
<path d="M0 0 C10.41580327 0.30322571 19.87921334 1.91499836 29.94970703 4.48583984 C45.71068889 8.43828421 60.79153168 10.39018888 77 8 C78.87351807 7.91461178 80.74954488 7.86959523 82.625 7.875 C83.97464844 7.87113281 83.97464844 7.87113281 85.3515625 7.8671875 C87.9928817 7.99964304 90.42455452 8.41424886 93 9 C93 9.33 93 9.66 93 10 C88.82948438 10.8104141 85.05103398 11.02987944 80.8125 10.875 C74.92250402 10.81300004 69.47925193 11.47098171 63.6875 12.5 C48.88430978 15.05509154 35.41380863 14.80460288 21 10 C21 9.34 21 8.68 21 8 C20.34644531 7.89816406 19.69289063 7.79632813 19.01953125 7.69140625 C15.09192327 6.7920704 11.44219151 5.38367698 7.6875 3.9375 C6.94693359 3.65583984 6.20636719 3.37417969 5.44335938 3.08398438 C3.62757345 2.39281425 1.81360101 1.69688311 0 1 C0 0.67 0 0.34 0 0 Z " fill="#C7C8CA" transform="translate(275,212)"/>
<path d="M0 0 C4.70778041 1.06999283 9.43430302 1.95387931 14.19140625 2.7734375 C14.8781543 2.89243408 15.56490234 3.01143066 16.27246094 3.1340332 C18.14061653 3.45519481 20.00973708 3.77072852 21.87890625 4.0859375 C22.82507813 4.27542969 23.77125 4.46492187 24.74609375 4.66015625 C29.07115373 5.24797612 33.33174914 5.23277151 37.69140625 5.2109375 C38.6148584 5.209729 39.53831055 5.20852051 40.48974609 5.20727539 C46.34812254 5.17452169 52.16109646 4.93510972 58.00390625 4.5234375 C69.39645401 3.76093894 79.51591272 3.85414282 88.69140625 11.3984375 C92.32061599 15.85718089 95.17080726 20.24412083 95.87890625 26.0859375 C92.06311678 21.50699013 92.06311678 21.50699013 91.00390625 19.0859375 C89.79713324 16.94056327 88.66073234 15.98461629 86.75390625 14.4609375 C85.80515625 13.6771875 84.85640625 12.8934375 83.87890625 12.0859375 C83.87890625 11.4259375 83.87890625 10.7659375 83.87890625 10.0859375 C82.95078125 9.9415625 82.02265625 9.7971875 81.06640625 9.6484375 C77.87890625 9.0859375 77.87890625 9.0859375 74.87890625 8.0859375 C64.7428656 6.55532734 54.61411534 7.2856264 44.4296875 7.83203125 C36.73366008 8.21432196 29.40630268 8.44722133 21.81640625 6.8984375 C21.16430176 6.77041748 20.51219727 6.64239746 19.84033203 6.51049805 C15.47678811 5.64682825 11.12963268 4.70999153 6.78125 3.7734375 C-11.37119286 -0.08782334 -25.90426393 -0.38393485 -44.12109375 3.0859375 C-44.12109375 3.7459375 -44.12109375 4.4059375 -44.12109375 5.0859375 C-44.78109375 5.0859375 -45.44109375 5.0859375 -46.12109375 5.0859375 C-46.36859375 5.6428125 -46.61609375 6.1996875 -46.87109375 6.7734375 C-48.12109375 9.0859375 -48.12109375 9.0859375 -50.18359375 11.4609375 C-52.36503652 14.41644061 -52.78479066 16.47067926 -53.12109375 20.0859375 C-53.45109375 20.0859375 -53.78109375 20.0859375 -54.12109375 20.0859375 C-54.59383166 16.22524454 -54.90501421 12.6631108 -53.13671875 9.10546875 C-47.44378392 1.8613691 -38.90039139 -1.3514507 -30.0078125 -2.62890625 C-19.46184683 -3.67065929 -10.2408255 -2.32843817 0 0 Z " fill="#979799" transform="translate(296.12109375,208.9140625)"/>
<path d="M0 0 C3.75376152 1.25125384 4.24073289 2.5652404 6 6 C6 6.66 6 7.32 6 8 C6.66 8.33 7.32 8.66 8 9 C8.97151611 10.24502211 9.90414653 11.52067277 10.8125 12.8125 C13.22412832 16.11293482 15.63356026 18.6236896 19 21 C21.83236991 18.35645475 23.21844267 16.56311466 25 13 C25.33 19.27 25.66 25.54 26 32 C22.17623701 30.4704948 19.98444466 29.45860147 16.875 27.0625 C16.21242188 26.55847656 15.54984375 26.05445313 14.8671875 25.53515625 C13.13174643 24.10831872 11.55581348 22.61862583 10 21 C9.67 21.66 9.34 22.32 9 23 C7.68 23 6.36 23 5 23 C4.03654556 21.12762629 3.07946898 19.2519701 2.125 17.375 C1.59132813 16.33085937 1.05765625 15.28671875 0.5078125 14.2109375 C-3.20571429 6.30285714 -3.20571429 6.30285714 -2.625 2.625 C-2.41875 2.08875 -2.2125 1.5525 -2 1 C-1.34 1 -0.68 1 0 1 C0 0.67 0 0.34 0 0 Z " fill="#B3B4B6" transform="translate(255,287)"/>
<path d="M0 0 C1.1328125 2.07421875 1.1328125 2.07421875 2 4 C2.66 4.33 3.32 4.66 4 5 C10.54013666 13.6985976 12.64099309 25.31678176 12 36 C13.32 35.67 14.64 35.34 16 35 C16.495 37.475 16.495 37.475 17 40 C13.535 40.495 13.535 40.495 10 41 C9.93530518 40.38068604 9.87061035 39.76137207 9.80395508 39.12329102 C9.49381455 36.26706982 9.15336705 33.41521091 8.8125 30.5625 C8.71130859 29.58861328 8.61011719 28.61472656 8.50585938 27.61132812 C7.74874097 21.4929929 6.33539914 16.98299108 3.0300293 11.75756836 C2 10 2 10 2 8 C1.34 8 0.68 8 0 8 C0 7.34 0 6.68 0 6 C-0.66 5.67 -1.32 5.34 -2 5 C-2.70125 4.525625 -3.4025 4.05125 -4.125 3.5625 C-17.78954859 -3.8638851 -36.21074502 -0.91712565 -51 1 C-51 0.34 -51 -0.32 -51 -1 C-13.68790909 -9.25255658 -13.68790909 -9.25255658 0 0 Z " fill="#616262" transform="translate(389,209)"/>
<path d="M0 0 C0.92619141 0.61488281 0.92619141 0.61488281 1.87109375 1.2421875 C1.21109375 1.9021875 0.55109375 2.5621875 -0.12890625 3.2421875 C-0.70898438 3.03722656 -1.2890625 2.83226562 -1.88671875 2.62109375 C-13.94906987 -1.53902405 -25.66789092 -1.81182281 -38.12890625 1.2421875 C-41.47444047 2.9998413 -44.44042146 5.1408008 -47.44140625 7.4296875 C-48.13878906 7.95949219 -48.83617187 8.48929688 -49.5546875 9.03515625 C-50.07417969 9.43347656 -50.59367188 9.83179688 -51.12890625 10.2421875 C-51.45890625 9.9121875 -51.78890625 9.5821875 -52.12890625 9.2421875 C-52.78890625 9.9021875 -53.44890625 10.5621875 -54.12890625 11.2421875 C-53.71079237 6.36419223 -51.76488056 4.39336523 -48.12890625 1.2421875 C-34.23168114 -10.22302321 -14.47667801 -9.21042833 0 0 Z " fill="#46484B" transform="translate(294.12890625,195.7578125)"/>
<path d="M0 0 C4.10488999 0.76016481 7.61556761 2.13563105 10.171875 5.578125 C15.64932398 14.70720664 15.37512481 26.5415282 13.0234375 36.69921875 C11.85556773 41.18991158 10.47361257 45.60132189 9 50 C8.67773438 50.99257813 8.35546875 51.98515625 8.0234375 53.0078125 C5.15298534 60.97019718 0.31380044 68.33310534 -6 74 C-8.90651604 74 -10.0230822 72.98190854 -12.3125 71.1875 C-14 69 -14 69 -13.75 66.75 C-13.5025 66.1725 -13.255 65.595 -13 65 C-12.34 65.33 -11.68 65.66 -11 66 C-11 66.66 -11 67.32 -11 68 C-7.535 67.505 -7.535 67.505 -4 67 C-4 66.34 -4 65.68 -4 65 C-3.34 65 -2.68 65 -2 65 C-1.855625 64.38125 -1.71125 63.7625 -1.5625 63.125 C-1 61 -1 61 0 59 C0.66 59 1.32 59 2 59 C2.268125 58.175 2.53625 57.35 2.8125 56.5 C3.63200362 54.0846209 4.51109532 51.68892941 5.4375 49.3125 C9.87876292 37.3864691 13.21350791 24.41876016 9 12 C8.5359375 10.2984375 8.5359375 10.2984375 8.0625 8.5625 C7.711875 7.716875 7.36125 6.87125 7 6 C6.01 5.67 5.02 5.34 4 5 C4 4.34 4 3.68 4 3 C3.34 3 2.68 3 2 3 C2 2.34 2 1.68 2 1 C1.34 0.67 0.68 0.34 0 0 Z " fill="#D4D4D6" transform="translate(372,223)"/>
<path d="M0 0 C0 3 0 3 -1.609375 4.90234375 C-2.66898437 5.90974609 -2.66898437 5.90974609 -3.75 6.9375 C-4.44609375 7.60652344 -5.1421875 8.27554687 -5.859375 8.96484375 C-6.56578125 9.63644531 -7.2721875 10.30804688 -8 11 C-9.05380859 12.09634766 -9.05380859 12.09634766 -10.12890625 13.21484375 C-12.15753665 15.15030114 -13.32370967 15.44628476 -16 16 C-16.33 16.66 -16.66 17.32 -17 18 C-32.24551886 21.95163849 -45.30889146 19.66338597 -59 12 C-58.34 11.01 -57.68 10.02 -57 9 C-53.12101499 9.68959733 -49.48435333 10.74908361 -45.75 12 C-44.69296875 12.350625 -43.6359375 12.70125 -42.546875 13.0625 C-40 14 -40 14 -39 15 C-26.84274701 16.25431975 -13.86235832 10.98891427 -4.23974609 3.65917969 C-2.80468709 2.4651904 -1.39925205 1.23575826 0 0 Z " fill="#545455" transform="translate(351,319)"/>
<path d="M0 0 C2.24866937 0.93921892 4.20977175 1.99250651 6.25390625 3.31640625 C6.87652344 3.70570313 7.49914062 4.095 8.140625 4.49609375 C16.38155977 10.53825417 19.36500938 20.2840869 21.00390625 29.94140625 C21.10735352 30.64056152 21.21080078 31.3397168 21.31738281 32.06005859 C21.84114265 36.11703301 21.84114265 36.11703301 24.25390625 39.31640625 C25.24390625 38.98640625 26.23390625 38.65640625 27.25390625 38.31640625 C26.92390625 39.96640625 26.59390625 41.61640625 26.25390625 43.31640625 C24.60390625 42.98640625 22.95390625 42.65640625 21.25390625 42.31640625 C20.24625524 38.2947991 19.24145024 34.27268681 18.25390625 30.24609375 C18.08890625 29.57707031 17.92390625 28.90804687 17.75390625 28.21875 C17.41875631 26.85982174 17.08544198 25.50043953 16.75390625 24.140625 C15.76072939 20.12912158 14.61527822 16.21819557 13.25390625 12.31640625 C12.59390625 12.31640625 11.93390625 12.31640625 11.25390625 12.31640625 C10.65578125 11.53265625 10.05765625 10.74890625 9.44140625 9.94140625 C7.04840679 7.0698069 5.75956735 6.40149183 2.25390625 5.31640625 C1.36960937 4.97351563 0.4853125 4.630625 -0.42578125 4.27734375 C-4.25393665 3.16943054 -7.51663243 3.08565124 -11.49609375 3.12890625 C-12.8109375 3.13535156 -14.12578125 3.14179688 -15.48046875 3.1484375 C-18.63082558 3.09182271 -18.63082558 3.09182271 -20.74609375 4.31640625 C-21.73609375 4.31640625 -22.72609375 4.31640625 -23.74609375 4.31640625 C-25.53894686 4.44684603 -27.33058565 4.59447745 -29.12109375 4.75390625 C-30.05695313 4.83511719 -30.9928125 4.91632813 -31.95703125 5 C-34.60138009 5.29998915 -37.14050112 5.78372567 -39.74609375 6.31640625 C-41.43028818 6.54996172 -43.11814722 6.75851404 -44.80859375 6.94140625 C-46.06349609 7.08449219 -46.06349609 7.08449219 -47.34375 7.23046875 C-49.7108274 7.31514469 -51.49538805 7.01292949 -53.74609375 6.31640625 C-50.64055488 4.37544446 -47.7434979 4.01055796 -44.15332031 3.59545898 C-39.55169542 3.06202519 -34.96250525 2.43062156 -30.37109375 1.81640625 C-29.37464844 1.68621094 -28.37820313 1.55601562 -27.3515625 1.421875 C-26.40152344 1.29425781 -25.45148438 1.16664063 -24.47265625 1.03515625 C-23.18222412 0.8640332 -23.18222412 0.8640332 -21.86572266 0.68945312 C-7.43378321 -1.85051502 -7.43378321 -1.85051502 0 0 Z " fill="#47494C" transform="translate(382.74609375,198.68359375)"/>
<path d="M0 0 C0.763125 0.103125 1.52625 0.20625 2.3125 0.3125 C5.62506953 1.15990151 7.46539695 2.75506587 10 5 C6.03470477 6.32176508 3.14850264 5.23682325 -0.75 4.1875 C-1.4409375 4.00896484 -2.131875 3.83042969 -2.84375 3.64648438 C-6.1281152 2.79143817 -9.3732802 1.88471044 -12.6171875 0.8828125 C-24.1466653 -2.12603506 -33.77396729 0.76227593 -44 6 C-44.66 6 -45.32 6 -46 6 C-46 6.66 -46 7.32 -46 8 C-48.8125 10.1875 -48.8125 10.1875 -52 12 C-52.99 11.67 -53.98 11.34 -55 11 C-54.67 9.35 -54.34 7.7 -54 6 C-53.01 6.33 -52.02 6.66 -51 7 C-49.03260178 5.63009522 -49.03260178 5.63009522 -47.125 3.6875 C-36.05150188 -7.01688152 -13.19345821 -6.59672911 0 0 Z " fill="#545556" transform="translate(295,198)"/>
<path d="M0 0 C19.69362256 4.55692404 38.13267495 4.92638644 58.25 3.5625 C58.745 5.0475 58.745 5.0475 59.25 6.5625 C58.60933594 6.55089844 57.96867187 6.53929687 57.30859375 6.52734375 C52.17050228 6.4737422 47.33616007 6.73210652 42.25 7.5625 C41.26 7.5625 40.27 7.5625 39.25 7.5625 C38.23035156 7.60890625 37.21070313 7.6553125 36.16015625 7.703125 C24.72843484 8.02808764 14.36754148 6.05584138 3.25 3.5625 C-15.16445062 -0.51212876 -31.12142304 -1.35373493 -49.75 2.5625 C-49.75 1.9025 -49.75 1.2425 -49.75 0.5625 C-32.65795639 -5.00642404 -17.20991835 -4.06603613 0 0 Z " fill="#A8A9AB" transform="translate(301.75,211.4375)"/>
<path d="M0 0 C3 2 3 2 4 5 C5.3797793 26.44312743 -0.95325343 51.10593994 -15 68 C-15.66 68 -16.32 68 -17 68 C-17 68.66 -17 69.32 -17 70 C-21.38461538 73 -21.38461538 73 -24 73 C-25.5625 70.1875 -25.5625 70.1875 -27 67 C-26.67 66.01 -26.34 65.02 -26 64 C-25.34 65.65 -24.68 67.3 -24 69 C-23.21625 68.505 -22.4325 68.01 -21.625 67.5 C-19 66 -19 66 -17 66 C-16.71640625 65.40832031 -16.4328125 64.81664062 -16.140625 64.20703125 C-15.12181089 62.23569572 -14.00697555 60.51011454 -12.75 58.6875 C-8.88560336 52.57742153 -6.54050206 45.73411955 -4 39 C-3.59265625 37.94296875 -3.1853125 36.8859375 -2.765625 35.796875 C-0.04283349 28.57555838 1.14090228 22.33076228 1.125 14.5625 C1.12757813 13.30566406 1.13015625 12.04882812 1.1328125 10.75390625 C1.00243134 7.06872098 0.59062733 3.63282683 0 0 Z " fill="#B6B7B9" transform="translate(387,232)"/>
<path d="M0 0 C3.4224702 1.59257281 4.67798426 4.73349281 6.390625 7.93359375 C6.75414062 8.58005859 7.11765625 9.22652344 7.4921875 9.89257812 C10.140625 14.68664826 10.140625 14.68664826 10.140625 16.99609375 C10.800625 16.99609375 11.460625 16.99609375 12.140625 16.99609375 C12.470625 18.31609375 12.800625 19.63609375 13.140625 20.99609375 C13.800625 20.99609375 14.460625 20.99609375 15.140625 20.99609375 C15.5325 21.63546875 15.924375 22.27484375 16.328125 22.93359375 C18.92229935 25.88558526 21.3419681 25.70940266 25.140625 25.99609375 C25.470625 24.67609375 25.800625 23.35609375 26.140625 21.99609375 C26.470625 22.65609375 26.800625 23.31609375 27.140625 23.99609375 C24.740625 30.39609375 24.740625 30.39609375 22.140625 32.99609375 C20.820625 32.33609375 19.500625 31.67609375 18.140625 30.99609375 C18.140625 30.33609375 18.140625 29.67609375 18.140625 28.99609375 C17.150625 28.66609375 16.160625 28.33609375 15.140625 27.99609375 C13.7679568 26.02288322 12.43634883 24.02066223 11.140625 21.99609375 C10.645625 21.52171875 10.150625 21.04734375 9.640625 20.55859375 C7.23267117 18.05030851 5.80544538 15.03869652 4.140625 11.99609375 C3.150625 12.98609375 2.160625 13.97609375 1.140625 14.99609375 C-1.96957634 12.45138357 -2.86070526 9.83713123 -3.859375 5.99609375 C-3.984375 3.12109375 -3.984375 3.12109375 -3.859375 0.99609375 C-1.859375 -0.00390625 -1.859375 -0.00390625 0 0 Z " fill="#C4C5C7" transform="translate(252.859375,276.00390625)"/>
<path d="M0 0 C6.75052407 -0.40323927 12.53954771 0.40449573 19.04296875 2.24609375 C25.19844312 3.81545512 31.1312598 4.1375056 37.4375 4.0625 C38.16904297 4.05798828 38.90058594 4.05347656 39.65429688 4.04882812 C41.43623419 4.03718148 43.21812863 4.01925191 45 4 C44.67 4.99 44.34 5.98 44 7 C38.20675044 9.34228419 32.55701874 9.30194974 26.375 9.25 C24.9828125 9.26160156 24.9828125 9.26160156 23.5625 9.2734375 C14.87955429 9.248558 14.87955429 9.248558 11 7 C10.67 6.34 10.34 5.68 10 5 C7.65961814 3.86897474 7.65961814 3.86897474 4.9375 2.875 C4.01839844 2.52179688 3.09929687 2.16859375 2.15234375 1.8046875 C1.44207031 1.53914063 0.73179687 1.27359375 0 1 C0 0.67 0 0.34 0 0 Z " fill="#777879" transform="translate(290,339)"/>
<path d="M0 0 C0.96070434 2.88211302 1.10581883 4.69850044 1.0625 7.6875 C1.05347656 8.49574219 1.04445313 9.30398438 1.03515625 10.13671875 C1.02355469 10.75160156 1.01195312 11.36648438 1 12 C1.99 11.67 2.98 11.34 4 11 C2.125 16.75 2.125 16.75 1 19 C0.01 19 -0.98 19 -2 19 C-2.33 19.66 -2.66 20.32 -3 21 C-4.32 20.34 -5.64 19.68 -7 19 C-7.66 20.32 -8.32 21.64 -9 23 C-9.99 23 -10.98 23 -12 23 C-13.43738342 24.37129515 -13.43738342 24.37129515 -14.75 26.1875 C-17.77801715 29.93067698 -20.99115453 32.35416199 -25 35 C-25.66 34.67 -26.32 34.34 -27 34 C-25.71034824 32.62437146 -24.37310707 31.29233607 -23 30 C-22.34 30 -21.68 30 -21 30 C-20.67 29.01 -20.34 28.02 -20 27 C-18.84893182 25.84893182 -17.69463629 24.70089168 -16.5234375 23.5703125 C-11.46033508 18.35142231 -7.47226312 12.4833537 -4.140625 6.04296875 C-2.9278668 3.87080253 -1.53098593 1.95772626 0 0 Z " fill="#78797A" transform="translate(386,286)"/>
<path d="M0 0 C0.33 0 0.66 0 1 0 C1.04898437 1.09699219 1.09796875 2.19398438 1.1484375 3.32421875 C1.22350591 4.77866925 1.29905197 6.23309516 1.375 7.6875 C1.4059375 8.40873047 1.436875 9.12996094 1.46875 9.87304688 C1.69537442 14.00894255 2.28225709 17.17663674 4 21 C4.125 23.8125 4.125 23.8125 4 26 C2.375 26.6875 2.375 26.6875 0 27 C-0.99 26.484375 -1.98 25.96875 -3 25.4375 C-3.99 24.963125 -4.98 24.48875 -6 24 C-7.34136367 24.65035814 -8.67532254 25.3162955 -10 26 C-15.06803229 24.09948789 -16.72527022 20.63370881 -19 16 C-19 15.34 -19 14.68 -19 14 C-17 12.375 -17 12.375 -15 11 C-14.01 11.66 -13.02 12.32 -12 13 C-12 13.66 -12 14.32 -12 15 C-11.43796875 15.26554687 -10.8759375 15.53109375 -10.296875 15.8046875 C-7.82069778 17.09331034 -5.56155118 18.56130361 -3.25 20.125 C-2.45078125 20.66382813 -1.6515625 21.20265625 -0.828125 21.7578125 C-0.22484375 22.16773438 0.3784375 22.57765625 1 23 C0.67 22.34 0.34 21.68 0 21 C-0.08400529 19.40552536 -0.10727467 17.80759455 -0.09765625 16.2109375 C-0.09443359 15.26992188 -0.09121094 14.32890625 -0.08789062 13.359375 C-0.07951172 12.37453125 -0.07113281 11.3896875 -0.0625 10.375 C-0.05798828 9.38242187 -0.05347656 8.38984375 -0.04882812 7.3671875 C-0.03702145 4.9113984 -0.020554 2.45572896 0 0 Z " fill="#89898B" transform="translate(280,296)"/>
<path d="M0 0 C0.66 0.33 1.32 0.66 2 1 C7.37458376 17.66120965 -1.36843414 38.39884805 -8.86376953 53.12841797 C-20.01347577 74.49654441 -20.01347577 74.49654441 -29.4375 78.4375 C-30.283125 78.623125 -31.12875 78.80875 -32 79 C-32 75.7 -32 72.4 -32 69 C-31.34 70.32 -30.68 71.64 -30 73 C-25.64616761 73.04208136 -25.64616761 73.04208136 -22.75 70.375 C-5.21726583 51.60861929 0.66452665 24.68593456 0 0 Z " fill="#979799" transform="translate(392,235)"/>
<path d="M0 0 C3.85940298 3.58152596 6.47543117 7.64927767 7.6875 12.8125 C7.27734375 15.08203125 7.27734375 15.08203125 6.6875 16.8125 C6.31238281 16.00425781 5.93726563 15.19601563 5.55078125 14.36328125 C1.61199857 6.13846805 -1.79282879 0.15198061 -10.484375 -3.40234375 C-20.34865274 -6.14090704 -30.9890058 -5.21263448 -41.0625 -4.453125 C-45.91499357 -4.11576116 -50.76195065 -4.03275557 -55.625 -4 C-56.44395752 -3.98718994 -57.26291504 -3.97437988 -58.10668945 -3.96118164 C-62.03000306 -3.95416024 -63.97451144 -3.96217429 -67.3125 -6.1875 C-66.08116333 -6.22508423 -66.08116333 -6.22508423 -64.82495117 -6.26342773 C-61.72541561 -6.35961345 -58.62599195 -6.45876811 -55.52661133 -6.55981445 C-53.54710818 -6.62348477 -51.56749969 -6.68385298 -49.58789062 -6.74414062 C-43.80803441 -6.93436374 -38.06471312 -7.1649747 -32.30859375 -7.734375 C-20.09891052 -8.93712667 -9.74528079 -7.70681839 0 0 Z " fill="#88888A" transform="translate(386.3125,219.1875)"/>
<path d="M0 0 C1.47765394 0.33361666 2.95551803 0.66630389 4.43359375 0.99804688 C7.99987212 1.80054502 11.56317819 2.61541795 15.125 3.4375 C15.125 4.0975 15.125 4.7575 15.125 5.4375 C12.70772016 5.02418272 10.29115443 4.60731978 7.875 4.1875 C7.11936768 4.05690186 6.36373535 3.92630371 5.58520508 3.79174805 C1.36087944 3.04942137 -2.84152489 2.2481584 -7.03515625 1.34765625 C-22.01588013 -1.86533344 -37.62290138 -4.18736755 -51.9375 3.25 C-55.25006913 5.7168068 -57.40527477 8.14453303 -59.875 11.4375 C-60.205 10.7775 -60.535 10.1175 -60.875 9.4375 C-56.92148576 3.08363782 -54.02606956 0.54075575 -46.875 -1.5625 C-45.2353125 -2.0884375 -45.2353125 -2.0884375 -43.5625 -2.625 C-28.83602776 -6.36901837 -14.48221977 -3.34800464 0 0 Z " fill="#878789" transform="translate(302.875,208.5625)"/>
<path d="M0 0 C3.387199 1.4388102 5.3594104 3.22119499 7.75 6 C8.67039062 7.051875 8.67039062 7.051875 9.609375 8.125 C11 10 11 10 11 12 C11.61875 12.309375 12.2375 12.61875 12.875 12.9375 C14.25 13.625 15.625 14.3125 17 15 C17.66 10.38 18.32 5.76 19 1 C19.33 1 19.66 1 20 1 C20.33 7.27 20.66 13.54 21 20 C17.17623701 18.4704948 14.98444466 17.45860147 11.875 15.0625 C11.21242188 14.55847656 10.54984375 14.05445313 9.8671875 13.53515625 C8.13174643 12.10831872 6.55581348 10.61862583 5 9 C4.67 9.66 4.34 10.32 4 11 C2.68 11 1.36 11 0 11 C-3 5.25 -3 5.25 -3 3 C-2.34 3 -1.68 3 -1 3 C-0.67 2.01 -0.34 1.02 0 0 Z " fill="#A4A5A7" transform="translate(260,299)"/>
<path d="M0 0 C7.46487411 1.20401195 14.70944296 3.2163231 22.00463867 5.17114258 C27.63864871 6.67148871 33.25949323 7.96482665 39 9 C39 9.33 39 9.66 39 10 C27.39619501 10.37521286 17.13652625 9.71217542 6 6 C6 5.34 6 4.68 6 4 C4.824375 3.814375 4.824375 3.814375 3.625 3.625 C1 3 1 3 -1 1 C-0.67 0.67 -0.34 0.34 0 0 Z " fill="#D5D5D7" transform="translate(290,216)"/>
<path d="M0 0 C4.875 4.625 4.875 4.625 6 8 C3.36 8 0.72 8 -2 8 C-2.66 9.98 -3.32 11.96 -4 14 C-5.14949588 13.21366078 -6.29448989 12.42073742 -7.4375 11.625 C-8.07558594 11.18414062 -8.71367187 10.74328125 -9.37109375 10.2890625 C-11 9 -11 9 -12 7 C-12.66 6.690625 -13.32 6.38125 -14 6.0625 C-16 5 -16 5 -17 2 C-14.03 2.495 -14.03 2.495 -11 3 C-10.67 2.34 -10.34 1.68 -10 1 C-9.071875 1.495 -8.14375 1.99 -7.1875 2.5 C-4.13472484 4.21289852 -4.13472484 4.21289852 -1 4 C-0.67 2.68 -0.34 1.36 0 0 Z " fill="#79797B" transform="translate(284,318)"/>
<path d="M0 0 C0.66 0.33 1.32 0.66 2 1 C-7.89847861 9.72691955 -17.79432916 12.32169722 -31 12 C-33.67836935 11.30820478 -35.53445283 10.33550472 -38 9 C-39.0725 8.87625 -40.145 8.7525 -41.25 8.625 C-44 8 -44 8 -45.875 5.4375 C-46.24625 4.633125 -46.6175 3.82875 -47 3 C-42.72332804 4.36737131 -38.60136502 5.70478445 -34.5625 7.6875 C-26.78020373 10.55466178 -19.44377313 9.26335014 -12 6 C-8.80849205 4.41410853 -5.64447825 2.79397301 -2.50390625 1.109375 C-1.67761719 0.74328125 -0.85132813 0.3771875 0 0 Z " fill="#3E4043" transform="translate(343,325)"/>
<path d="M0 0 C0 0.66 0 1.32 0 2 C-0.763125 1.938125 -1.52625 1.87625 -2.3125 1.8125 C-5.53016907 2.03698854 -5.89962531 2.71698403 -8 5 C-9.32594105 5.36162029 -10.65938457 5.69728039 -12 6 C-12.66 6.66 -13.32 7.32 -14 8 C-14 7.34 -14 6.68 -14 6 C-16.62901288 7.52206009 -18.84365964 8.84365964 -21 11 C-21 10.34 -21 9.68 -21 9 C-21.99 9 -22.98 9 -24 9 C-24.33 9.99 -24.66 10.98 -25 12 C-25.66 11.01 -26.32 10.02 -27 9 C-24.44113496 7.67997444 -21.87832932 6.36886218 -19.3125 5.0625 C-18.2306543 4.50272461 -18.2306543 4.50272461 -17.12695312 3.93164062 C-11.24593536 0.9508508 -6.64903254 -0.15462866 0 0 Z " fill="#4C4E50" transform="translate(318,15)"/>
<path d="M0 0 C-0.33 0.66 -0.66 1.32 -1 2 C-3.984375 2.59765625 -3.984375 2.59765625 -7.75 3.0625 C-11.8720197 3.58422007 -15.93716609 4.12385452 -20 5 C-20 5.66 -20 6.32 -20 7 C-20.66 7 -21.32 7 -22 7 C-22.2475 7.556875 -22.495 8.11375 -22.75 8.6875 C-24 11 -24 11 -26.0625 13.375 C-28.24394277 16.33050311 -28.66369691 18.38474176 -29 22 C-29.33 22 -29.66 22 -30 22 C-30.47273791 18.13930704 -30.78392046 14.5771733 -29.015625 11.01953125 C-23.1023012 3.49499283 -14.4708591 0.71303795 -5.34765625 -0.8359375 C-3 -1 -3 -1 0 0 Z " fill="#98989A" transform="translate(272,207)"/>
<path d="M0 0 C0.33 0.66 0.66 1.32 1 2 C1.66 2.33 2.32 2.66 3 3 C3.90455743 7.08648626 4.22906533 11.2799718 4.6875 15.4375 C4.90116211 17.16516602 4.90116211 17.16516602 5.11914062 18.92773438 C5.90304212 25.80344751 6.06025684 32.15279294 5 39 C4.67 39 4.34 39 4 39 C3.4282312 33.92821306 2.85862161 28.85619005 2.29101562 23.78393555 C2.09759973 22.05828287 1.90359296 20.33269631 1.70898438 18.60717773 C1.42943608 16.12761284 1.1520104 13.64781829 0.875 11.16796875 C0.78750488 10.39599655 0.70000977 9.62402435 0.60986328 8.82865906 C0.28077195 5.86776819 0 2.9818196 0 0 Z " fill="#C4C4C6" transform="translate(243,231)"/>
<path d="M0 0 C-6.7620595 4.24516391 -17.42458657 2.4821461 -25 1 C-26.33472851 0.67229784 -27.66836455 0.34005283 -29 0 C-19.1791009 -3.02181511 -9.87130867 -2.63234898 0 0 Z " fill="#3D3F43" transform="translate(286,191)"/>
<path d="M0 0 C0 0.33 0 0.66 0 1 C-0.845625 1.09796875 -1.69125 1.1959375 -2.5625 1.296875 C-9.56926916 2.22049457 -14.85937889 3.52417673 -21 7 C-21.66 7 -22.32 7 -23 7 C-23 7.66 -23 8.32 -23 9 C-23.99 9 -24.98 9 -26 9 C-26 9.66 -26 10.32 -26 11 C-26.66 11 -27.32 11 -28 11 C-28.66 12.32 -29.32 13.64 -30 15 C-29.73334574 10.60020477 -27.94649374 7.75748356 -25.0546875 4.58203125 C-18.17720548 -0.71336841 -8.2775903 -0.43995067 0 0 Z " fill="#C5C6C8" transform="translate(273,211)"/>
<path d="M0 0 C0.75 1.625 0.75 1.625 1 4 C-1.91032013 9.82064027 -6.86576033 14.09480612 -12 18 C-12.66 18 -13.32 18 -14 18 C-12.74830725 14.24492176 -10.82358723 12.75941479 -8 10 C-7.0933059 8.90473419 -6.19720618 7.80060214 -5.3125 6.6875 C-4.1678125 5.3571875 -4.1678125 5.3571875 -3 4 C-2.34 4 -1.68 4 -1 4 C-0.67 2.68 -0.34 1.36 0 0 Z " fill="#313234" transform="translate(461,306)"/>
<path d="M0 0 C0 0.33 0 0.66 0 1 C-5.17317421 2.06309567 -10.12369336 2.11693938 -15.375 2.0625 C-16.20644531 2.05798828 -17.03789062 2.05347656 -17.89453125 2.04882812 C-19.92971897 2.03713164 -21.96486923 2.01919935 -24 2 C-23.67 1.34 -23.34 0.68 -23 0 C-15.52092853 -1.6258851 -7.45863907 -1.69636917 0 0 Z " fill="#CDCED0" transform="translate(368,221)"/>
<path d="M0 0 C-3.63622792 2.05001625 -7.49571404 3.11061921 -11.5 4.1875 C-12.49580078 4.47270508 -12.49580078 4.47270508 -13.51171875 4.76367188 C-16.97530326 5.70042976 -19.59580736 6.36341389 -23 5 C-15.33208404 0.59804825 -8.72993766 -0.06202442 0 0 Z " fill="#2D2F31" transform="translate(273,185)"/>
<path d="M0 0 C0.66 0.33 1.32 0.66 2 1 C0.61019248 2.13243576 -0.78714677 3.25563119 -2.1875 4.375 C-2.96480469 5.00148438 -3.74210937 5.62796875 -4.54296875 6.2734375 C-7.00792513 8.00556901 -9.11532878 9.14073623 -12 10 C-12.99 9.67 -13.98 9.34 -15 9 C-12.54732365 7.46931512 -10.08866106 5.95031377 -7.625 4.4375 C-6.92632812 3.99986328 -6.22765625 3.56222656 -5.5078125 3.11132812 C-3.70814097 2.01249022 -1.85677657 0.99932133 0 0 Z " fill="#444649" transform="translate(343,325)"/>
<path d="M0 0 C2.875 0.25 2.875 0.25 6 1 C7.375 3.0625 7.375 3.0625 8 5 C1.375 4.25 1.375 4.25 -2 2 C-1.34 2 -0.68 2 0 2 C0 1.34 0 0.68 0 0 Z " fill="#2C2E31" transform="translate(307,200)"/>
<path d="M0 0 C0.99 0.33 1.98 0.66 3 1 C2.36771484 1.65355469 2.36771484 1.65355469 1.72265625 2.3203125 C-1.76365195 6.11013459 -3.73880963 8.64559734 -4 14 C-4.33 14 -4.66 14 -5 14 C-5.78774617 5.96498906 -5.78774617 5.96498906 -2.5 1.9375 C-1.2625 0.9784375 -1.2625 0.9784375 0 0 Z " fill="#A7A8AA" transform="translate(247,215)"/>
<path d="M0 0 C1.32 0.33 2.64 0.66 4 1 C3.07038578 2.15224028 2.1309875 3.29659176 1.1875 4.4375 C0.40439453 5.39462891 0.40439453 5.39462891 -0.39453125 6.37109375 C-2 8 -2 8 -5 9 C-3.7508258 5.54074837 -2.32472205 2.85306797 0 0 Z " fill="#333537" transform="translate(288,279)"/>
<path d="M0 0 C4.455 2.97 4.455 2.97 9 6 C8.67 6.66 8.34 7.32 8 8 C7.34 7.67 6.68 7.34 6 7 C6 6.34 6 5.68 6 5 C5.01 5 4.02 5 3 5 C2.67 5.66 2.34 6.32 2 7 C0.5393715 4.35261084 0 3.10551666 0 0 Z " fill="#303234" transform="translate(294,191)"/>
<path d="M0 0 C1.98 0.99 3.96 1.98 6 3 C6 3.66 6 4.32 6 5 C6.99 5.33 7.98 5.66 9 6 C4.80530429 5.40075776 0.99000166 4.42500059 -3 3 C-2.01 2.67 -1.02 2.34 0 2 C0 1.34 0 0.68 0 0 Z " fill="#6C6D6E" transform="translate(295,341)"/>
<path d="M0 0 C4.875 4.75 4.875 4.75 6 7 C5.34 7.66 4.68 8.32 4 9 C2.02 6.69 0.04 4.38 -2 2 C-1.34 1.34 -0.68 0.68 0 0 Z " fill="#6C6D6D" transform="translate(272,324)"/>
<path d="M0 0 C0.66 0.66 1.32 1.32 2 2 C0.50260417 3.20442708 -0.99479167 4.40885417 -2.4921875 5.61328125 C-4.25292107 7.12270545 -4.25292107 7.12270545 -6 10 C-5.58578031 5.16743695 -3.53586014 3.17320782 0 0 Z " fill="#404245" transform="translate(246,197)"/>
<path d="M0 0 C0.6875 1.6875 0.6875 1.6875 1 4 C-0.4375 6.75 -0.4375 6.75 -2 9 C-2.99 8.01 -3.98 7.02 -5 6 C-4.360625 5.7525 -3.72125 5.505 -3.0625 5.25 C-0.81258459 4.18437567 -0.81258459 4.18437567 -0.25 1.875 C-0.1675 1.25625 -0.085 0.6375 0 0 Z " fill="#393A3B" transform="translate(461,306)"/>
<path d="M0 0 C-1.76956458 2.14210449 -2.87575652 2.96060573 -5.5625 3.8125 C-6.366875 3.874375 -7.17125 3.93625 -8 4 C-8.66 3.34 -9.32 2.68 -10 2 C-6.5980513 -0.09350689 -3.94727588 -0.17942163 0 0 Z " fill="#323335" transform="translate(301,275)"/>
<path d="M0 0 C0 0.99 0 1.98 0 3 C-0.99 3.495 -0.99 3.495 -2 4 C-1.67 4.66 -1.34 5.32 -1 6 C-3.97 5.505 -3.97 5.505 -7 5 C-2.25 0 -2.25 0 0 0 Z " fill="#4E4F51" transform="translate(281,32)"/>
<path d="M0 0 C2.1875 0.3125 2.1875 0.3125 4 1 C2.35 2.65 0.7 4.3 -1 6 C-1 5.34 -1 4.68 -1 4 C-1.66 3.67 -2.32 3.34 -3 3 C-1.75 1.4375 -1.75 1.4375 0 0 Z " fill="#454749" transform="translate(305,17)"/>
<path d="M0 0 C0.99 0.495 0.99 0.495 2 1 C2.40729228 3.32156597 2.74438677 5.6568787 3 8 C2.01 8.33 1.02 8.66 0 9 C0 6.03 0 3.06 0 0 Z " fill="#4F5152" transform="translate(173,283)"/>
<path d="M0 0 C-0.33 2.31 -0.66 4.62 -1 7 C-1.99 7 -2.98 7 -4 7 C-3.625 4.0625 -3.625 4.0625 -3 1 C-1 0 -1 0 0 0 Z " fill="#8F9091" transform="translate(395,276)"/>
<path d="M0 0 C0.66 0.66 1.32 1.32 2 2 C1.34 2 0.68 2 0 2 C0.66 3.32 1.32 4.64 2 6 C0.68 6 -0.64 6 -2 6 C-2 4.35 -2 2.7 -2 1 C-1.34 0.67 -0.68 0.34 0 0 Z " fill="#BCBDBF" transform="translate(251,276)"/>
<path d="M0 0 C0.33 0.66 0.66 1.32 1 2 C1.66 2 2.32 2 3 2 C3 2.99 3 3.98 3 5 C1.66666667 6.33333333 0.33333333 7.66666667 -1 9 C-0.67 6.03 -0.34 3.06 0 0 Z " fill="#4F5052" transform="translate(192,193)"/>
<path d="M0 0 C-0.33 1.32 -0.66 2.64 -1 4 C-1.66 4 -2.32 4 -3 4 C-3.33 4.66 -3.66 5.32 -4 6 C-4 5.34 -4 4.68 -4 4 C-4.66 3.67 -5.32 3.34 -6 3 C-2.25 0 -2.25 0 0 0 Z " fill="#4A4B4D" transform="translate(291,25)"/>
</svg>
